<?xml version="1.0" encoding="utf-8"?>
<!-- Generator: Adobe Illustrator 17.1.0, SVG Export Plug-In . SVG Version: 6.00 Build 0)  -->
<!DOCTYPE svg PUBLIC "-//W3C//DTD SVG 1.1//EN" "http://www.w3.org/Graphics/SVG/1.1/DTD/svg11.dtd">
<svg version="1.1" id="Layer_1" xmlns="http://www.w3.org/2000/svg" xmlns:xlink="http://www.w3.org/1999/xlink" x="0px" y="0px"
	 viewBox="200 0 560 560" enable-background="new 200 0 560 560" xml:space="preserve">
<path fill="#C84A28" d="M200,0l552.8,0c4,0,7.2,3.2,7.2,7.2V560"/>
<path fill="#FFFFFF" d="M583.7,114.5l15,30.3c0.8,1.5,2.2,2.6,3.9,2.8l33.4,4.9c4.2,0.6,5.9,5.8,2.9,8.8l-24.2,23.6
	c-1.2,1.2-1.8,2.9-1.5,4.6l5.7,33.3c0.7,4.2-3.7,7.4-7.5,5.4l-29.9-15.7c-1.5-0.8-3.3-0.8-4.8,0l-29.9,15.7c-3.8,2-8.2-1.2-7.5-5.4
	l5.7-33.3c0.3-1.7-0.3-3.4-1.5-4.6l-24.2-23.6c-3.1-3-1.4-8.2,2.9-8.8l33.4-4.9c1.7-0.2,3.1-1.3,3.9-2.8l15-30.3
	C576.3,110.7,581.8,110.7,583.7,114.5z"/>
</svg>
